<?xml version="1.0" encoding="UTF-8"?>
<svg id="Layer_1" xmlns="http://www.w3.org/2000/svg" version="1.1" viewBox="0 0 2500 2500">
  <!-- Generator: Adobe Illustrator 30.2.1, SVG Export Plug-In . SVG Version: 2.1.1 Build 1)  -->
  <defs>
    <style>
      .st0 {
        fill: #fff;
      }
    </style>
  </defs>
  <path class="st0" d="M1250,59.41c657.08,0,1190.59,534.7,1190.59,1190.59s-534.7,1190.59-1190.59,1190.59S59.41,1907.08,59.41,1250,594.11,59.41,1250,59.41M1250,0C559.65,0,0,559.65,0,1250s559.65,1250,1250,1250,1250-559.65,1250-1250S1941.54,0,1250,0Z"/>
  <path class="st0" d="M1163.26,501.43s-281.61,79.61-534.7,348.15-285.17,459.84-285.17,602.42c55.85-95.06,400.43-619.06,481.23-369.53v596.48s-4.75,80.8-128.33,48.72c36.83,68.92,226.95,238.83,570.34,273.29,78.42-78.42,180.61-191.3,180.61-191.3l171.1,144.96s307.75-199.62,428.94-489.54c-112.88,73.67-249.52,244.77-320.82,124.76v-726s182.98-274.48,211.5-287.55c-72.48,13.07-327.95,97.43-462.21,270.91-38.02-41.59-143.77-42.78-143.77-42.78,0,0,83.17,68.92,84.36,131.89s0,588.17,0,648.76c-57.03,58.22-117.63,89.12-156.84,89.12-91.49,0-117.63-32.08-142.59-64.16v-762.83s-45.15,38.02-80.8-23.76-36.83-181.8,127.14-322.01Z"/>
</svg>